<svg xmlns="http://www.w3.org/2000/svg" version="1.1" xmlns:xlink="http://www.w3.org/1999/xlink" xmlns:svgjs="http://svgjs.dev/svgjs" width="1500" height="1500" viewBox="0 0 1500 1500"><g transform="matrix(1,0,0,1,-0.323615160350073,-0.3236151603499593)"><svg viewBox="0 0 343 343" data-background-color="#ececea" preserveAspectRatio="xMidYMid meet" height="1500" width="1500" xmlns="http://www.w3.org/2000/svg" xmlns:xlink="http://www.w3.org/1999/xlink"><g id="tight-bounds" transform="matrix(1,0,0,1,0.0740000000000407,0.07400000000001228)"><svg viewBox="0 0 342.85155851775386 342.85155851775386" height="342.85155851775386" width="342.85155851775386"><g><svg></svg></g><g><svg viewBox="0 0 342.85155851775386 342.85155851775386" height="342.85155851775386" width="342.85155851775386"><g><path d="M0 171.426c0-94.676 76.75-171.426 171.426-171.426 94.676 0 171.426 76.75 171.426 171.426 0 94.676-76.75 171.426-171.426 171.426-94.676 0-171.426-76.75-171.426-171.426zM171.426 334.866c90.265 0 163.44-73.175 163.44-163.44 0-90.265-73.175-163.44-163.44-163.44-90.265 0-163.44 73.175-163.44 163.44 0 90.265 73.175 163.44 163.44 163.44z" data-fill-palette-color="tertiary" fill="#009b7d" stroke="transparent"></path><ellipse rx="164.56874808852186" ry="164.56874808852186" cx="171.42577925887693" cy="171.42577925887693" fill="#009b7d" stroke="transparent" stroke-width="0" fill-opacity="1" data-fill-palette-color="tertiary"></ellipse></g><g transform="matrix(1,0,0,1,64.84655864529837,84.8809858233334)"><svg viewBox="0 0 213.1584412271571 173.08958687108705" height="173.08958687108705" width="213.1584412271571"><g><svg viewBox="0 0 213.1584412271571 173.08958687108705" height="173.08958687108705" width="213.1584412271571"><g><svg viewBox="0 0 213.1584412271571 173.08958687108705" height="173.08958687108705" width="213.1584412271571"><g transform="matrix(1,0,0,1,0,84.53663719250397)"><svg viewBox="0 0 213.1584412271571 88.55294967858308" height="88.55294967858308" width="213.1584412271571"><g id="textblocktransform"><svg viewBox="0 0 213.1584412271571 88.55294967858308" height="88.55294967858308" width="213.1584412271571" id="textblock"><g><svg viewBox="0 0 213.1584412271571 88.55294967858308" height="88.55294967858308" width="213.1584412271571"><g transform="matrix(1,0,0,1,0,0)"><svg width="213.1584412271571" viewBox="0.6 -33.2 80.27391303185702 33.35" height="88.55294967858308" data-palette-color="#ececea"><path d="M5.7-32.3L24.8-32.3Q25.4-32.3 26.35-32.55 27.3-32.8 27.75-33L27.75-33Q28.15-33.2 28.3-33.2 28.45-33.2 28.65-33.1L28.65-33.1Q28.9-30.85 29.23-28.75 29.55-26.65 29.95-24.7L29.95-24.7Q29.85-24.6 29.6-24.45 29.35-24.3 29-24.35L29-24.35Q28.45-24.35 28.3-24.6L28.3-24.6Q27.8-27.15 26.65-28.85 25.5-30.55 23.65-30.55L23.65-30.55 17.45-30.55 17.45-5.65Q17.45-4.55 17.48-3.6 17.5-2.65 17.7-2.05L17.7-2.05Q17.8-1.8 18.5-1.6 19.2-1.4 19.98-1.33 20.75-1.25 21.05-1.25L21.05-1.25Q21.2-1.05 21.23-0.55 21.25-0.05 21.05 0.15L21.05 0.15Q19.55 0.05 18.18-0.03 16.8-0.1 15.35-0.1L15.35-0.1Q13.95-0.1 12.5-0.03 11.05 0.05 9.55 0.15L9.55 0.15Q9.35-0.05 9.38-0.55 9.4-1.05 9.55-1.25L9.55-1.25Q9.85-1.25 10.65-1.33 11.45-1.4 12.18-1.6 12.9-1.8 12.95-2.05L12.95-2.05Q13.15-2.65 13.18-3.6 13.2-4.55 13.2-5.65L13.2-5.65 13.2-30.55 6.9-30.55Q5.05-30.55 3.9-28.85 2.75-27.15 2.2-24.6L2.2-24.6Q2.05-24.35 1.5-24.35L1.5-24.35Q1.15-24.3 0.93-24.45 0.7-24.6 0.6-24.7L0.6-24.7Q1-26.65 1.3-28.75 1.6-30.85 1.85-33.1L1.85-33.1Q2.1-33.2 2.45-33.13 2.8-33.05 3-32.95L3-32.95Q3.45-32.75 4.28-32.52 5.1-32.3 5.7-32.3L5.7-32.3ZM33.75-28.95L33.75-28.95Q33.75-29.95 34.47-30.68 35.2-31.4 36.2-31.4L36.2-31.4Q37.2-31.4 37.92-30.68 38.65-29.95 38.65-28.95L38.65-28.95Q38.65-27.95 37.92-27.23 37.2-26.5 36.2-26.5L36.2-26.5Q35.2-26.5 34.47-27.23 33.75-27.95 33.75-28.95ZM38.45-17.5L38.45-5.65Q38.45-4.55 38.47-3.6 38.5-2.65 38.7-2.05L38.7-2.05Q38.8-1.8 39.42-1.6 40.05-1.4 40.75-1.33 41.45-1.25 41.75-1.25L41.75-1.25Q41.9-1.05 41.92-0.55 41.95-0.05 41.75 0.15L41.75 0.15Q40.25 0.05 39.12-0.03 38-0.1 36.55-0.1L36.55-0.1Q35.15-0.1 34-0.03 32.85 0.05 31.35 0.15L31.35 0.15Q31.15-0.05 31.17-0.55 31.2-1.05 31.35-1.25L31.35-1.25Q31.65-1.25 32.37-1.33 33.1-1.4 33.75-1.6 34.4-1.8 34.45-2.05L34.45-2.05Q34.65-2.65 34.67-3.6 34.7-4.55 34.7-5.65L34.7-5.65 34.7-14.75Q34.7-15.25 34.67-16.05 34.65-16.85 34.45-17.3L34.45-17.3Q34.3-17.75 33.6-17.93 32.9-18.1 32.2-18.13 31.5-18.15 31.3-18.15L31.3-18.15Q31.25-18.25 31.2-18.75 31.15-19.25 31.3-19.45L31.3-19.45Q33.2-19.7 35-20.2 36.8-20.7 38.25-21.5L38.25-21.5Q38.45-21.5 38.62-21.2 38.8-20.9 38.8-20.7L38.8-20.7Q38.8-20.55 38.7-19.85 38.6-19.15 38.52-18.45 38.45-17.75 38.45-17.5L38.45-17.5ZM58.35-21.4L58.35-21.4Q60.55-21.4 61.92-20.48 63.3-19.55 63.9-17.35L63.9-17.35Q65.5-18.8 67.42-20.1 69.34-21.4 71.09-21.4L71.09-21.4Q73.75-21.4 75.09-20.3 76.45-19.2 76.92-16.9 77.4-14.6 77.4-11.05L77.4-11.05 77.4-5.65Q77.4-4.55 77.42-3.6 77.45-2.65 77.65-2.05L77.65-2.05Q77.75-1.8 78.37-1.6 79-1.4 79.7-1.33 80.4-1.25 80.7-1.25L80.7-1.25Q80.84-1.05 80.87-0.55 80.9-0.05 80.7 0.15L80.7 0.15Q79.2 0.05 78.07-0.03 76.95-0.1 75.5-0.1L75.5-0.1Q74.09-0.1 72.95-0.03 71.8 0.05 70.3 0.15L70.3 0.15Q70.09-0.05 70.12-0.55 70.15-1.05 70.3-1.25L70.3-1.25Q70.59-1.25 71.32-1.33 72.05-1.4 72.7-1.6 73.34-1.8 73.4-2.05L73.4-2.05Q73.55-2.55 73.57-3.33 73.59-4.1 73.59-5.05L73.59-5.05Q73.59-5.2 73.59-5.35 73.59-5.5 73.59-5.65L73.59-5.65 73.59-10.9Q73.59-13.35 73.27-15.05 72.95-16.75 72-17.65 71.05-18.55 69.05-18.55L69.05-18.55Q67.84-18.55 66.75-17.93 65.65-17.3 64.95-16.63 64.25-15.95 64.25-15.75L64.25-15.75Q64.25-15.7 64.27-15.48 64.3-15.25 64.3-15.15L64.3-15.15Q64.4-14.45 64.45-13.4 64.5-12.35 64.5-11.65L64.5-11.65 64.5-5.65Q64.5-4.55 64.52-3.6 64.55-2.65 64.75-2.05L64.75-2.05Q64.84-1.8 65.47-1.6 66.09-1.4 66.8-1.33 67.5-1.25 67.8-1.25L67.8-1.25Q67.95-1.05 67.97-0.55 68-0.05 67.8 0.15L67.8 0.15Q66.3 0.05 65.17-0.03 64.05-0.1 62.6-0.1L62.6-0.1Q61.2-0.1 60.05-0.03 58.9 0.05 57.4 0.15L57.4 0.15Q57.2-0.05 57.22-0.55 57.25-1.05 57.4-1.25L57.4-1.25Q57.7-1.25 58.42-1.33 59.15-1.4 59.8-1.6 60.45-1.8 60.5-2.05L60.5-2.05Q60.7-2.65 60.72-3.6 60.75-4.55 60.75-5.65L60.75-5.65 60.75-10.65Q60.75-15.1 59.77-16.82 58.8-18.55 56.15-18.55L56.15-18.55Q55.05-18.55 54-18 52.95-17.45 52.27-16.82 51.6-16.2 51.6-15.85L51.6-15.85 51.6-5.65Q51.6-4.55 51.62-3.6 51.65-2.65 51.85-2.05L51.85-2.05Q51.95-1.8 52.57-1.6 53.2-1.4 53.9-1.33 54.6-1.25 54.9-1.25L54.9-1.25Q55.05-1.05 55.07-0.55 55.1-0.05 54.9 0.15L54.9 0.15Q53.4 0.05 52.27-0.03 51.15-0.1 49.7-0.1L49.7-0.1Q48.3-0.1 47.15-0.03 46 0.05 44.5 0.15L44.5 0.15Q44.3-0.05 44.32-0.55 44.35-1.05 44.5-1.25L44.5-1.25Q44.8-1.25 45.52-1.33 46.25-1.4 46.9-1.6 47.55-1.8 47.6-2.05L47.6-2.05Q47.8-2.65 47.82-3.6 47.85-4.55 47.85-5.65L47.85-5.65 47.85-14.55Q47.85-15.05 47.82-15.95 47.8-16.85 47.6-17.3L47.6-17.3Q47.45-17.75 46.75-17.93 46.05-18.1 45.35-18.13 44.65-18.15 44.45-18.15L44.45-18.15Q44.4-18.25 44.35-18.75 44.3-19.25 44.45-19.45L44.45-19.45Q46.35-19.7 48.15-20.2 49.95-20.7 51.4-21.5L51.4-21.5Q51.6-21.5 51.77-21.2 51.95-20.9 51.95-20.7L51.95-20.7Q51.95-20.55 51.87-20 51.8-19.45 51.72-18.9 51.65-18.35 51.65-18.15L51.65-18.15Q51.65-17.95 51.75-17.95L51.75-17.95Q51.8-17.95 51.9-18.05L51.9-18.05Q52.5-18.6 53.5-19.38 54.5-20.15 55.77-20.78 57.05-21.4 58.35-21.4Z" opacity="1" transform="matrix(1,0,0,1,0,0)" fill="#ececea" class="wordmark-text-0" data-fill-palette-color="quaternary" id="text-0"></path></svg></g></svg></g></svg></g></svg></g><g transform="matrix(1,0,0,1,36.76130477403552,0)"><svg viewBox="0 0 139.63583167908607 63.6314110441828" height="63.6314110441828" width="139.63583167908607"><g><svg xmlns="http://www.w3.org/2000/svg" xmlns:xlink="http://www.w3.org/1999/xlink" version="1.1" x="0" y="0" viewBox="5 29.49391886595174 90 41.01258914071542" enable-background="new 0 0 100 100" xml:space="preserve" height="63.6314110441828" width="139.63583167908607" class="icon-icon-0" data-fill-palette-color="quaternary" id="icon-0"><g fill="#ececea" data-fill-palette-color="quaternary"><path d="M23.943 30.807L5 50.001 23.942 69.193A4.386 4.386 0 0 0 30.2 69.195 4.52 4.52 0 0 0 30.202 62.857L18.193 50.695 14.569 52.984 30.203 37.143A4.5 4.5 0 0 0 31.498 33.975 4.5 4.5 0 0 0 30.201 30.805 4.387 4.387 0 0 0 23.943 30.807" fill="#ececea" data-fill-palette-color="quaternary"></path><path d="M76.057 30.808L95 50.001 76.058 69.193A4.386 4.386 0 0 1 69.8 69.195 4.52 4.52 0 0 1 69.798 62.857L81.807 50.696 85.431 52.985 69.796 37.144A4.5 4.5 0 0 1 68.501 33.976 4.5 4.5 0 0 1 69.798 30.806 4.386 4.386 0 0 1 76.057 30.808" fill="#ececea" data-fill-palette-color="quaternary"></path><path d="M60.899 32.352A4.5 4.5 0 0 0 58.533 29.876 4.386 4.386 0 0 0 52.708 32.164L38.888 64.226A4.5 4.5 0 0 0 38.84 67.648 4.5 4.5 0 0 0 41.206 70.124 4.386 4.386 0 0 0 47.031 67.836L60.851 35.774A4.5 4.5 0 0 0 60.899 32.352" fill="#ececea" data-fill-palette-color="quaternary"></path></g></svg></g></svg></g><g></g></svg></g></svg></g></svg></g></svg></g><defs></defs></svg><rect width="342.85155851775386" height="342.85155851775386" fill="none" stroke="none" visibility="hidden"></rect></g></svg></g></svg>